<svg id="svg" xmlns="http://www.w3.org/2000/svg" xmlns:xlink="http://www.w3.org/1999/xlink" width="400" height="490.46563192904654" viewBox="0, 0, 400,490.46563192904654"><g id="svgg"><path id="path0" d="M168.237 54.176 L 161.419 60.459 161.419 79.916 L 161.419 99.373 163.858 100.419 C 165.200 100.995,167.409 102.221,168.768 103.144 C 171.092 104.722,171.452 104.738,174.773 103.409 C 176.716 102.632,179.296 101.996,180.506 101.996 C 182.397 101.996,182.705 101.591,182.705 99.107 C 182.705 97.519,183.076 94.924,183.530 93.342 C 184.372 90.407,183.830 89.695,182.085 91.441 C 179.871 93.655,177.602 91.466,176.984 86.522 C 176.082 79.298,177.389 73.926,179.532 76.053 C 179.900 76.419,181.248 76.718,182.527 76.718 C 185.594 76.718,187.647 82.063,189.006 93.586 C 190.506 106.312,189.566 109.972,180.991 124.790 L 173.827 137.170 175.606 142.338 C 179.944 154.949,176.021 166.384,165.242 172.540 C 158.874 176.176,161.260 201.857,169.230 215.461 L 171.533 219.392 172.611 215.169 C 173.724 210.806,175.967 207.539,177.850 207.539 C 178.444 207.539,183.071 212.299,188.134 218.116 C 193.197 223.934,197.639 228.724,198.004 228.760 C 199.595 228.916,198.762 84.343,197.155 81.331 C 195.518 78.264,194.951 66.435,196.308 63.681 C 197.594 61.073,189.282 52.960,185.843 53.464 C 183.753 53.771,182.337 53.192,179.511 50.877 C 174.990 47.172,176.233 46.809,168.237 54.176 M221.723 51.004 C 219.202 53.606,218.266 54.033,216.006 53.616 C 211.496 52.783,204.090 60.889,205.584 65.022 C 207.122 69.276,206.904 73.766,204.873 79.635 C 203.141 84.639,203.100 86.693,203.321 156.886 L 203.548 228.996 213.154 218.267 C 218.438 212.367,223.265 207.539,223.881 207.539 C 225.970 207.539,228.146 210.997,228.602 215.042 C 229.220 220.526,230.025 220.137,233.583 212.639 C 239.731 199.684,242.025 175.286,237.298 173.132 C 226.248 168.097,221.263 154.424,225.988 142.110 L 227.782 137.434 220.668 125.021 C 211.401 108.852,210.455 104.203,213.246 88.554 C 214.851 79.557,216.306 76.647,219.046 76.958 C 220.208 77.089,221.443 76.739,221.789 76.179 C 223.295 73.741,224.390 76.745,224.390 83.314 C 224.390 91.369,223.262 93.222,219.423 91.473 C 217.437 90.568,217.223 90.632,217.625 92.008 C 217.876 92.867,218.348 95.466,218.675 97.783 C 219.198 101.483,219.531 101.996,221.415 101.996 C 222.595 101.996,224.941 102.572,226.628 103.277 C 229.510 104.482,229.988 104.415,234.527 102.169 L 239.358 99.778 239.413 79.750 L 239.468 59.723 232.886 53.808 C 225.198 46.901,225.602 47.002,221.723 51.004 M138.183 92.577 C 129.066 97.169,117.967 106.127,117.958 108.900 C 117.957 109.249,121.190 109.403,125.143 109.242 C 146.392 108.379,135.384 129.771,110.103 138.469 C 100.868 141.646,96.643 140.222,94.609 133.247 L 93.400 129.100 91.553 134.035 C 87.891 143.823,87.354 149.760,89.886 152.440 C 93.746 156.525,95.156 169.117,92.275 173.779 C 91.386 175.217,85.756 165.400,84.296 159.867 C 81.894 150.759,78.019 161.609,78.077 177.283 C 78.108 185.571,78.587 186.712,83.169 189.394 C 87.673 192.031,94.013 203.080,94.013 208.291 C 94.013 211.522,97.319 213.747,102.118 213.747 C 111.082 213.747,117.238 219.630,118.453 229.359 C 118.782 231.992,119.305 234.143,119.614 234.140 C 123.343 234.096,142.148 212.746,140.186 210.784 C 137.852 208.450,140.837 203.991,144.734 203.991 C 148.568 203.991,148.427 207.457,144.410 211.937 C 142.302 214.288,139.180 218.152,137.472 220.523 L 134.368 224.834 133.781 237.694 C 133.092 252.794,132.640 251.718,138.524 249.013 C 147.196 245.027,154.296 236.477,154.315 229.997 C 154.327 225.981,156.568 223.898,159.083 225.565 C 162.075 227.548,161.819 229.431,157.926 234.081 C 152.234 240.880,147.281 255.605,147.240 265.854 C 147.226 269.261,147.156 269.242,151.127 266.899 C 159.188 262.144,161.015 265.789,157.469 279.554 C 154.683 290.368,154.918 290.768,160.539 284.780 C 169.041 275.724,173.251 264.010,170.802 256.222 C 169.310 251.480,169.319 251.186,171.122 245.835 C 173.207 239.645,173.010 237.908,169.392 230.599 C 160.927 213.495,151.663 185.960,151.663 177.903 C 151.663 173.517,157.216 166.110,166.581 158.005 C 173.156 152.315,173.413 150.737,169.401 140.717 C 165.800 131.723,166.640 128.753,175.682 118.517 C 179.365 114.347,179.439 114.150,177.776 112.908 C 172.028 108.612,148.352 99.335,143.138 99.335 C 141.439 99.335,141.596 97.658,143.681 93.570 C 146.274 88.484,146.300 88.488,138.183 92.577 M257.766 93.713 C 260.335 98.787,260.376 98.743,250.998 101.102 C 243.950 102.875,227.874 109.880,223.996 112.869 C 222.323 114.158,222.379 114.327,225.846 118.518 C 234.966 129.541,235.647 132.120,231.852 141.259 C 228.934 148.286,228.650 153.135,231.055 154.867 C 234.520 157.363,246.717 169.901,248.538 172.839 C 252.007 178.436,248.345 192.607,235.878 221.828 C 228.306 239.576,228.137 240.265,230.155 245.096 C 231.765 248.949,231.835 252.326,230.415 257.637 C 228.496 264.809,232.802 275.954,240.809 284.539 C 246.674 290.828,246.849 290.609,244.213 280.266 C 240.611 266.138,242.070 262.860,250.129 266.971 C 254.893 269.402,254.958 269.286,253.694 260.572 C 252.008 248.947,248.707 240.071,244.210 235.070 C 239.517 229.850,239.158 226.521,243.129 225.060 C 245.108 224.332,246.563 226.017,246.563 229.038 C 246.563 234.777,254.309 245.006,261.057 248.178 C 268.378 251.619,268.029 252.129,267.886 238.197 L 267.760 225.840 264.035 220.576 C 261.987 217.681,258.735 213.533,256.810 211.358 C 252.826 206.860,253.171 204.277,257.710 204.623 C 261.502 204.912,263.088 206.934,261.778 209.809 C 260.217 213.234,269.116 224.929,278.834 232.225 C 282.413 234.913,282.614 234.769,283.200 229.095 C 284.174 219.663,290.449 213.751,299.492 213.749 C 304.360 213.747,307.761 211.176,307.761 207.498 C 307.761 201.739,313.924 192.123,320.367 187.831 C 322.233 186.589,322.766 185.355,323.239 181.180 C 324.722 168.115,319.105 147.916,317.190 159.424 C 316.595 162.999,311.349 173.083,309.819 173.593 C 308.747 173.951,307.776 168.975,307.790 163.193 C 307.800 158.988,310.571 151.663,312.152 151.663 C 314.403 151.663,312.170 138.019,308.915 131.884 L 307.409 129.047 306.862 132.151 C 305.205 141.554,299.204 142.542,285.144 135.729 C 263.120 125.056,257.627 108.536,276.340 109.249 C 280.453 109.406,283.817 109.408,283.816 109.253 C 283.789 105.554,266.317 92.827,257.536 90.111 C 255.660 89.531,255.662 89.555,257.766 93.713 M72.608 121.407 C 62.979 130.230,57.967 143.134,63.235 145.534 C 66.540 147.040,67.849 151.049,67.849 159.661 C 67.849 166.771,68.030 167.498,70.933 172.025 L 74.016 176.835 74.621 173.783 C 74.954 172.105,75.671 167.539,76.214 163.636 C 76.758 159.734,77.911 155.105,78.778 153.349 C 80.312 150.242,80.308 150.136,78.609 149.358 C 75.638 147.998,74.897 145.920,75.963 141.929 C 76.779 138.872,76.662 137.798,75.187 134.818 C 72.998 130.393,73.621 125.904,77.209 120.247 C 80.643 114.831,79.459 115.130,72.608 121.407 M324.604 120.914 C 327.630 126.276,328.094 131.538,325.911 135.758 C 324.787 137.933,324.732 138.998,325.596 141.882 C 326.751 145.736,325.064 149.889,322.343 149.889 C 321.265 149.889,321.193 150.246,321.977 151.711 C 323.947 155.393,325.507 162.047,326.070 169.180 C 326.750 177.789,326.782 177.806,330.904 171.729 C 334.029 167.121,334.083 166.891,333.685 160.004 C 333.206 151.734,334.736 146.944,338.387 145.280 C 343.420 142.987,338.016 129.392,328.733 120.992 C 322.074 114.966,321.239 114.950,324.604 120.914 M136.744 142.572 C 143.882 148.257,149.148 156.010,146.804 157.385 C 139.497 161.670,130.016 171.619,121.973 183.442 C 117.010 190.735,116.159 190.432,118.396 182.166 L 119.931 176.497 117.837 174.777 C 114.960 172.413,116.829 168.986,122.623 166.005 L 126.829 163.840 126.829 155.091 C 126.829 150.279,126.510 146.341,126.120 146.341 C 124.770 146.341,102.437 174.211,101.987 176.458 C 101.359 179.592,96.383 179.789,95.944 176.698 C 93.731 161.102,126.058 134.063,136.744 142.572 M280.266 143.830 C 297.076 153.113,312.928 178.002,302.661 178.992 C 300.126 179.236,299.778 179.011,299.778 177.124 C 299.778 175.103,277.296 146.515,275.610 146.390 C 275.244 146.363,274.945 150.327,274.945 155.199 L 274.945 164.056 277.827 165.351 C 284.731 168.453,287.891 175.610,282.357 175.610 C 281.390 175.610,281.149 176.085,281.568 177.162 C 283.069 181.013,284.782 189.123,284.207 189.656 C 283.857 189.979,283.390 189.737,283.169 189.117 C 281.182 183.549,265.131 164.591,258.587 160.084 C 252.790 156.091,252.920 156.630,256.466 151.276 C 263.874 140.092,270.017 138.170,280.266 143.830 M59.107 196.756 L 52.357 207.258 52.915 215.754 C 53.729 228.135,51.266 238.515,46.131 244.346 C 42.793 248.138,40.477 257.783,41.803 262.376 C 43.491 268.225,43.327 278.272,41.487 281.683 C 37.424 289.218,52.193 327.340,67.336 348.401 L 71.368 354.009 72.486 346.804 C 73.811 338.266,76.556 331.426,79.627 329.010 L 81.845 327.265 87.102 335.394 C 94.314 346.546,101.206 354.781,111.409 364.437 C 127.885 380.030,125.679 396.965,108.045 390.265 C 101.612 387.821,101.804 388.298,110.155 395.507 C 123.137 406.716,137.192 415.146,153.880 421.736 C 160.820 424.477,177.995 428.952,178.735 428.213 C 179.144 427.804,174.106 418.597,169.653 411.614 L 168.293 409.480 167.145 412.209 C 164.097 419.460,157.491 416.402,157.491 407.741 C 157.491 404.977,158.004 402.239,158.673 401.433 C 159.323 400.650,159.645 399.209,159.390 398.232 C 158.758 395.818,159.324 395.639,164.967 396.470 C 167.650 396.866,172.539 397.454,175.831 397.778 C 182.584 398.443,182.906 398.971,179.157 403.240 C 173.979 409.138,176.417 416.883,191.392 442.111 L 198.226 453.624 198.469 438.300 C 198.668 425.724,198.470 422.631,197.360 421.047 C 196.186 419.371,196.006 412.069,195.989 365.435 C 195.968 306.738,196.174 309.257,190.789 301.695 C 188.178 298.028,191.288 290.561,196.094 288.959 C 198.494 288.159,198.190 270.741,195.695 266.157 C 192.390 260.084,193.161 254.455,196.976 256.812 C 198.366 257.672,197.949 237.148,196.505 233.693 C 195.004 230.101,187.435 221.729,185.688 221.729 C 182.957 221.729,184.367 227.015,188.027 230.497 C 193.624 235.821,193.071 241.882,186.853 243.370 C 180.757 244.828,177.841 261.730,182.726 267.294 C 184.677 269.516,185.609 271.461,185.559 273.206 C 185.414 278.313,183.487 279.030,181.296 274.793 C 179.951 272.190,179.774 272.107,178.937 273.684 C 177.394 276.592,173.542 280.310,170.014 282.297 C 167.790 283.550,166.785 284.664,167.075 285.559 C 167.317 286.306,168.925 290.325,170.648 294.490 C 176.619 308.920,181.534 330.416,182.961 348.337 C 183.433 354.267,182.825 354.245,175.385 348.070 C 156.667 332.533,144.892 308.095,143.891 282.705 L 143.445 271.397 138.315 271.397 L 133.185 271.397 132.224 266.919 C 131.696 264.456,131.264 261.263,131.264 259.823 C 131.264 256.166,123.943 257.104,121.300 261.099 C 118.313 265.614,122.513 291.128,127.749 300.280 C 130.381 304.880,130.941 308.574,129.047 308.845 C 125.006 309.423,118.949 287.454,117.867 268.293 C 116.266 239.963,116.445 240.857,110.441 231.170 C 107.525 226.466,104.911 222.616,104.632 222.616 C 103.941 222.616,102.134 235.467,101.430 245.390 C 100.885 253.067,100.709 253.620,98.230 255.453 C 95.289 257.628,95.261 261.327,98.099 272.532 C 100.179 280.744,100.848 281.771,103.832 281.333 C 113.428 279.925,129.075 317.600,122.102 325.327 C 115.926 332.172,147.713 353.050,175.610 360.472 L 183.149 362.477 183.401 372.516 C 183.704 384.605,183.815 384.463,175.407 382.727 C 124.532 372.218,88.304 329.570,79.490 269.810 C 78.822 265.279,78.124 261.430,77.940 261.257 C 77.756 261.084,72.451 263.895,66.151 267.502 C 59.851 271.109,54.463 273.823,54.177 273.531 C 51.677 270.980,54.893 247.275,59.432 234.802 C 64.493 220.892,64.264 220.851,72.394 237.107 L 79.379 251.072 80.446 239.876 C 81.695 226.767,83.445 220.090,87.024 214.785 L 89.614 210.945 87.225 205.472 C 83.834 197.707,83.370 197.561,83.370 204.257 C 83.370 214.110,78.215 209.963,70.644 194.022 C 66.115 184.485,67.149 184.240,59.107 196.756 M330.161 195.428 C 327.603 200.469,324.011 206.141,322.179 208.032 L 318.847 211.470 318.404 204.404 L 317.960 197.339 315.022 204.065 L 312.085 210.791 314.777 215.151 C 318.448 221.099,320.300 229.048,320.957 241.685 L 321.511 252.328 328.480 238.581 C 337.158 221.461,336.456 222.071,339.623 228.894 C 345.215 240.938,350.959 274.058,347.457 274.058 C 347.212 274.058,341.776 271.096,335.378 267.475 C 328.979 263.855,323.591 261.161,323.404 261.489 C 323.217 261.816,322.796 264.080,322.469 266.519 C 314.011 329.518,274.249 375.999,222.367 383.536 L 218.126 384.152 218.376 373.315 L 218.625 362.478 226.164 360.476 C 246.595 355.053,265.795 344.647,276.294 333.306 C 280.917 328.314,282.063 326.386,280.408 326.386 C 278.982 326.386,277.605 321.836,277.605 317.125 C 277.605 304.050,290.938 280.375,297.694 281.453 C 303.176 282.329,308.019 259.533,303.222 255.432 C 300.784 253.348,300.578 252.648,299.801 243.766 C 297.745 220.253,297.820 220.368,291.310 230.738 C 285.365 240.209,285.348 240.289,283.888 266.075 C 282.745 286.250,276.559 309.534,272.342 309.534 C 270.432 309.534,271.479 304.123,274.438 298.700 C 278.350 291.530,280.266 282.012,280.266 269.757 L 280.266 260.060 276.700 258.633 C 271.226 256.443,270.819 256.655,270.187 262.030 C 269.176 270.636,268.602 271.397,263.128 271.397 L 258.363 271.397 257.812 282.262 C 256.523 307.657,247.469 327.503,229.148 345.091 C 223.125 350.872,219.341 353.562,218.464 352.684 C 215.564 349.784,225.375 306.063,232.480 290.227 C 234.181 286.435,234.784 284.174,234.151 283.963 C 231.902 283.213,225.598 277.776,223.947 275.161 C 222.062 272.177,220.843 271.515,220.843 273.477 C 220.843 274.865,217.511 278.117,216.808 277.414 C 214.851 275.457,215.471 270.622,218.012 268.023 C 224.251 261.641,221.014 244.876,213.151 242.842 C 207.822 241.463,208.327 234.979,214.162 229.856 C 217.510 226.916,218.306 222.788,215.691 221.928 C 214.247 221.454,207.948 228.142,205.681 232.559 C 203.861 236.103,203.069 257.881,204.798 256.812 C 208.476 254.539,209.256 259.174,206.208 265.188 C 203.439 270.654,202.787 289.135,205.364 289.135 C 209.982 289.135,213.302 298.082,210.267 302.345 C 205.180 309.488,205.375 307.264,204.676 366.297 C 204.320 396.297,203.809 428.226,203.540 437.251 L 203.051 453.659 209.309 443.459 C 224.063 419.412,227.725 408.520,222.734 403.529 C 219.875 400.670,219.109 398.232,221.064 398.219 C 223.191 398.205,238.094 396.386,239.999 395.908 C 242.040 395.395,242.308 396.148,243.591 406.007 C 244.865 415.799,237.228 420.875,234.217 412.238 L 233.214 409.361 231.329 412.441 C 220.192 430.634,220.017 429.592,233.631 426.124 C 254.579 420.788,276.617 408.992,291.661 395.064 C 298.516 388.718,299.128 387.603,294.487 389.918 C 277.479 398.403,273.214 380.021,288.881 365.759 C 298.186 357.288,307.345 346.413,314.328 335.543 C 321.877 323.792,326.751 328.355,329.514 349.760 L 330.070 354.065 334.854 347.543 C 349.168 328.026,363.086 290.709,359.734 280.835 C 357.968 275.634,357.927 269.710,359.614 263.236 C 361.169 257.264,359.294 250.162,354.199 242.729 C 349.817 236.336,349.118 233.215,348.968 219.376 L 348.832 206.824 342.265 196.543 C 338.653 190.888,335.499 186.262,335.255 186.261 C 335.011 186.261,332.719 190.386,330.161 195.428 M142.721 387.186 C 147.748 389.712,147.843 389.869,145.728 392.206 C 144.318 393.764,144.321 394.022,145.784 396.499 C 147.413 399.255,147.014 403.025,145.158 402.424 C 142.942 401.706,135.821 384.922,137.732 384.922 C 137.997 384.922,140.242 385.941,142.721 387.186 M263.805 387.361 C 263.036 390.895,257.255 402.661,256.288 402.661 C 254.664 402.661,254.287 398.208,255.771 396.568 C 257.556 394.595,257.583 393.435,255.876 392.018 C 253.680 390.196,254.363 389.013,258.776 386.997 C 264.265 384.489,264.427 384.501,263.805 387.361 " stroke="none" fill="currentColor" fill-rule="evenodd"></path></g></svg>
